Coordinates
version=1
nRows=38
nColumns=38
inDegrees=no

Units are S.I. units (second, meters, Newtons, ...)
If the header above contains a line with 'inDegrees', this indicates whether rotational values are in degrees (yes) or radians (no).

endheader
time	pelvis_tilt	pelvis_list	pelvis_rotation	pelvis_tx	pelvis_ty	pelvis_tz	hip_flexion_r	hip_adduction_r	hip_rotation_r	knee_angle_r	ankle_angle_r	subtalar_angle_r	mtp_angle_r	hip_flexion_l	hip_adduction_l	hip_rotation_l	knee_angle_l	ankle_angle_l	subtalar_angle_l	mtp_angle_l	lumbar_extension	lumbar_bending	lumbar_rotation	arm_flex_r	arm_add_r	arm_rot_r	elbow_flex_r	pro_sup_r	wrist_flex_r	wrist_dev_r	arm_flex_l	arm_add_l	arm_rot_l	elbow_flex_l	pro_sup_l	wrist_flex_l	wrist_dev_l
1.67	3.09287	1.47211	-1.3212	0.512561	1.22809	0.911334	0.32568	-0.0490911	-0.360513	0.282656	0.0204064	0	0	-0.376073	-0.101712	-0.207832	0.427742	0.293555	0	0	-0.246171	0.0393683	-0.289474	-0.135307	-0.196411	0.195365	0.66436	0.48161	0	0	0.145045	-0.429371	0.184873	0.749596	1.35747	0	0
1.68	3.00988	1.47214	-1.23447	0.512904	1.24117	0.911967	0.328281	-0.0437449	-0.364481	0.314382	0.0260323	0	0	-0.349734	-0.126311	-0.214393	0.495566	0.267671	0	0	-0.24124	0.050795	-0.289239	-0.136588	-0.198034	0.198421	0.658484	0.476957	0	0	0.137475	-0.421109	0.182691	0.743866	1.3562	0	0
1.69	2.9048	1.47278	-1.12787	0.513438	1.25404	0.912659	0.332482	-0.0356232	-0.365209	0.344429	0.0348415	0	0	-0.317533	-0.151713	-0.215638	0.56585	0.230469	0	0	-0.234379	0.0634627	-0.286576	-0.137408	-0.20075	0.203495	0.652635	0.471003	0	0	0.12951	-0.412284	0.180786	0.738149	1.35535	0	0
1.7	2.7632	1.47572	-0.986317	0.514185	1.26666	0.913018	0.34018	-0.0249998	-0.366804	0.369831	0.0435204	0	0	-0.275923	-0.178014	-0.211547	0.639336	0.181043	0	0	-0.222674	0.0770811	-0.282315	-0.13832	-0.205039	0.214458	0.646763	0.459678	0	0	0.12053	-0.403124	0.17896	0.732946	1.35444	0	0
1.71	2.61921	1.4777	-0.844599	0.515087	1.27913	0.91338	0.345017	-0.0131084	-0.367026	0.38632	0.0494898	0	0	-0.233726	-0.200057	-0.199786	0.707034	0.124382	0	0	-0.21073	0.0893358	-0.275851	-0.140024	-0.210692	0.228892	0.643825	0.439137	0	0	0.111116	-0.394585	0.179211	0.729291	1.35246	0	0
1.72	2.47825	1.47854	-0.70729	0.516101	1.29152	0.913647	0.346195	-9.51357e-06	-0.366247	0.394095	0.0543868	0	0	-0.191255	-0.219067	-0.185348	0.771198	0.0680384	0	0	-0.198661	0.100177	-0.267964	-0.143054	-0.216594	0.241925	0.644124	0.418118	0	0	0.101152	-0.38713	0.181887	0.727395	1.34945	0	0
1.73	2.34959	1.47832	-0.583397	0.517237	1.30388	0.91387	0.343586	0.0138967	-0.363685	0.395031	0.0597228	0	0	-0.150068	-0.235484	-0.17157	0.832026	0.0241123	0	0	-0.187021	0.109242	-0.258875	-0.147295	-0.222624	0.253448	0.64735	0.398928	0	0	0.0908014	-0.380835	0.186687	0.726751	1.34553	0	0
1.74	2.25848	1.47725	-0.497996	0.518462	1.31622	0.91436	0.336074	0.0270523	-0.358606	0.391857	0.0659163	0	0	-0.113913	-0.247963	-0.160108	0.886214	0.0028147	0	0	-0.178312	0.115479	-0.248477	-0.151991	-0.227824	0.261613	0.651643	0.387506	0	0	0.0809033	-0.375613	0.192626	0.726703	1.34264	0	0
1.75	2.22198	1.47622	-0.46795	0.5197	1.32844	0.915431	0.323576	0.0377836	-0.350903	0.387701	0.0721803	0	0	-0.0847935	-0.2552	-0.150477	0.931619	1.89598e-05	0	0	-0.174401	0.11809	-0.237235	-0.155907	-0.231401	0.26667	0.655217	0.379681	0	0	0.0720692	-0.371264	0.198828	0.726228	1.34013	0	0
1.76	2.22834	1.47533	-0.48058	0.520875	1.34048	0.917102	0.307804	0.0461582	-0.340927	0.38468	0.0780944	0	0	-0.0603259	-0.259117	-0.141758	0.971017	0.0092022	0	0	-0.174654	0.11805	-0.226052	-0.158613	-0.23343	0.269192	0.657747	0.373992	0	0	0.0644512	-0.367754	0.205705	0.724878	1.33822	0	0
1.77	2.27735	1.47449	-0.535339	0.521924	1.3523	0.91941	0.288429	0.051897	-0.328874	0.382419	0.0843127	0	0	-0.0407051	-0.259667	-0.132927	1.00472	0.0274744	0	0	-0.1793	0.115452	-0.215072	-0.159737	-0.234074	0.269962	0.658294	0.369039	0	0	0.0584835	-0.364748	0.213181	0.722061	1.33668	0	0
1.78	2.3512	1.47373	-0.614471	0.522914	1.36396	0.922104	0.266908	0.055142	-0.316382	0.380424	0.0916529	0	0	-0.0242787	-0.257777	-0.125248	1.03191	0.0509694	0	0	-0.186162	0.1106	-0.20439	-0.160043	-0.233188	0.26843	0.656928	0.365196	0	0	0.0534679	-0.362301	0.221195	0.717896	1.33595	0	0
1.79	2.42556	1.4732	-0.693918	0.523914	1.37554	0.924865	0.244573	0.0572526	-0.304376	0.37633	0.0988815	0	0	-0.00828215	-0.255059	-0.119894	1.05294	0.0744746	0	0	-0.192515	0.104533	-0.193834	-0.160345	-0.231456	0.265385	0.654331	0.3616	0	0	0.0486952	-0.360415	0.230251	0.713012	1.33592	0	0
1.8	2.49135	1.47341	-0.763934	0.524757	1.38691	0.927529	0.222495	0.0580328	-0.295545	0.369689	0.105423	0	0	0.00971227	-0.251635	-0.115783	1.06946	0.0946888	0	0	-0.197259	0.0980183	-0.184677	-0.160717	-0.22923	0.260848	0.651296	0.359259	0	0	0.043339	-0.358423	0.237653	0.708185	1.33723	0	0
1.81	2.54181	1.47438	-0.818135	0.525489	1.39805	0.930006	0.201419	0.0584495	-0.289599	0.360543	0.110763	0	0	0.0302896	-0.248623	-0.113545	1.08201	0.112515	0	0	-0.199979	0.0918215	-0.176802	-0.161037	-0.226922	0.256337	0.647889	0.357706	0	0	0.0367406	-0.356412	0.242891	0.704359	1.33966	0	0
1.82	2.58029	1.476	-0.860368	0.526167	1.40899	0.932313	0.180875	0.0591471	-0.284991	0.34839	0.114494	0	0	0.052445	-0.245988	-0.113005	1.09029	0.128307	0	0	-0.201166	0.0860138	-0.169622	-0.161564	-0.224975	0.252871	0.644797	0.356133	0	0	0.0291957	-0.354313	0.246149	0.70107	1.34374	0	0
1.83	2.61517	1.47764	-0.89956	0.526892	1.41985	0.93452	0.159676	0.0605259	-0.279838	0.333298	0.11669	0	0	0.0742305	-0.24348	-0.114314	1.09394	0.142175	0	0	-0.201786	0.0803119	-0.162434	-0.162693	-0.223731	0.251388	0.642889	0.353208	0	0	0.0207244	-0.352264	0.247709	0.698369	1.34948	0	0
1.84	2.65444	1.48014	-0.943458	0.527572	1.43053	0.936589	0.139499	0.0607284	-0.274626	0.318326	0.118719	0	0	0.0960972	-0.240108	-0.118401	1.09327	0.154723	0	0	-0.201858	0.0736854	-0.155576	-0.164307	-0.222552	0.25024	0.641812	0.350032	0	0	0.0115841	-0.35045	0.247906	0.696583	1.35504	0	0
1.85	2.70161	1.4833	-0.995068	0.528103	1.441	0.938532	0.120396	0.0594426	-0.269904	0.304185	0.121144	0	0	0.117945	-0.235648	-0.124436	1.08862	0.167395	0	0	-0.201643	0.0662914	-0.149284	-0.166441	-0.221587	0.249215	0.641457	0.346978	0	0	0.00231691	-0.348681	0.247617	0.695197	1.36078	0	0
1.86	2.75756	1.48682	-1.05488	0.528496	1.45138	0.940321	0.101974	0.0569565	-0.2664	0.290813	0.124237	0	0	0.139549	-0.230264	-0.131689	1.0801	0.179085	0	0	-0.201049	0.0583598	-0.143496	-0.169606	-0.221312	0.249535	0.642477	0.343136	0	0	-0.00683411	-0.346987	0.247372	0.693734	1.36627	0	0
1.87	2.82502	1.4903	-1.12657	0.528778	1.46161	0.941987	0.0838155	0.053581	-0.262319	0.277623	0.127357	0	0	0.160118	-0.22404	-0.141106	1.06765	0.188997	0	0	-0.20066	0.049926	-0.137339	-0.173322	-0.221919	0.251015	0.644631	0.33858	0	0	-0.0154921	-0.345191	0.247558	0.692007	1.37062	0	0
1.88	2.90346	1.49315	-1.2095	0.529004	1.47177	0.943556	0.0650341	0.0498287	-0.257269	0.263641	0.130137	0	0	0.179143	-0.217524	-0.152779	1.05132	0.197157	0	0	-0.200802	0.0411617	-0.130885	-0.17732	-0.222732	0.252408	0.647185	0.333708	0	0	-0.0237686	-0.343507	0.248236	0.690315	1.37301	0	0
1.89	2.98851	1.49483	-1.29909	0.529194	1.48187	0.945032	0.0454991	0.0460688	-0.251434	0.249337	0.132741	0	0	0.196391	-0.211254	-0.166371	1.03139	0.204029	0	0	-0.201908	0.0325015	-0.124318	-0.181559	-0.223303	0.251698	0.650039	0.329637	0	0	-0.0318072	-0.342157	0.249205	0.688662	1.37381	0	0
1.9	3.07239	1.4953	-1.38743	0.529352	1.49189	0.946395	0.0251053	0.0426711	-0.24467	0.234126	0.134522	0	0	0.211996	-0.205721	-0.181906	1.00797	0.20998	0	0	-0.203895	0.0243477	-0.117902	-0.185678	-0.223552	0.248605	0.653175	0.326028	0	0	-0.0395209	-0.340819	0.250066	0.686976	1.37213	0	0
1.91	-3.13178	1.49498	-1.47116	0.529442	1.5019	0.947563	0.00456844	0.0394519	-0.237546	0.218944	0.136473	0	0	0.2262	-0.200841	-0.199609	0.981355	0.21538	0	0	-0.20615	0.0167364	-0.111527	-0.189704	-0.223528	0.242614	0.656214	0.32679	0	0	-0.0473019	-0.339046	0.250026	0.68495	1.36886	0	0
1.92	-3.06114	1.49425	-1.54654	0.529421	1.5118	0.948468	-0.0153357	0.0364168	-0.230129	0.204703	0.138794	0	0	0.239694	-0.196264	-0.218155	0.952303	0.220044	0	0	-0.208532	0.00986896	-0.105469	-0.193277	-0.224022	0.236381	0.659672	0.32967	0	0	-0.0552675	-0.336951	0.248988	0.683	1.36474	0	0
1.93	-3.00105	1.49314	-1.61084	0.529255	1.52167	0.94911	-0.0349616	0.033713	-0.223381	0.191352	0.141229	0	0	0.252492	-0.191868	-0.236774	0.921114	0.22398	0	0	-0.210924	0.00394638	-0.100353	-0.196334	-0.225755	0.233767	0.664005	0.329563	0	0	-0.0632716	-0.334712	0.247485	0.680955	1.36037	0	0
1.94	-2.95189	1.49167	-1.66359	0.528989	1.53154	0.949522	-0.0548008	0.0316	-0.217204	0.177857	0.143751	0	0	0.26443	-0.187584	-0.255168	0.887769	0.227426	0	0	-0.213426	-0.0011005	-0.0961187	-0.19878	-0.226861	0.229274	0.66764	0.329966	0	0	-0.0712386	-0.332522	0.245986	0.678998	1.35523	0	0
1.95	-2.91276	1.49009	-1.70597	0.528613	1.54133	0.949709	-0.0745235	0.02999	-0.210833	0.16436	0.14641	0	0	0.275599	-0.183265	-0.273306	0.852248	0.230399	0	0	-0.215945	-0.00530813	-0.0927187	-0.200267	-0.227718	0.223462	0.67089	0.332187	0	0	-0.0790104	-0.33007	0.244105	0.676481	1.34939	0	0
1.96	-2.88593	1.48861	-1.73539	0.528087	1.55107	0.949648	-0.0941274	0.0291318	-0.204613	0.150979	0.149448	0	0	0.286309	-0.179076	-0.290663	0.814943	0.232876	0	0	-0.218357	-0.00833867	-0.0903687	-0.201022	-0.228278	0.216294	0.674028	0.336205	0	0	-0.0865447	-0.327317	0.242032	0.673413	1.34328	0	0
1.97	-2.86805	1.48784	-1.7549	0.5274	1.56076	0.949275	-0.112627	0.0288153	-0.200718	0.138848	0.153651	0	0	0.297469	-0.174702	-0.30647	0.776217	0.234722	0	0	-0.220093	-0.0103435	-0.0892746	-0.200841	-0.228979	0.210382	0.676866	0.338912	0	0	-0.0938743	-0.324366	0.239624	0.669919	1.33894	0	0
1.98	-2.85594	1.48721	-1.76809	0.526588	1.57037	0.948669	-0.130743	0.0288013	-0.197687	0.127352	0.158421	0	0	0.308165	-0.169708	-0.320978	0.73557	0.2358	0	0	-0.221847	-0.0117626	-0.0887884	-0.199664	-0.229505	0.204566	0.679289	0.342558	0	0	-0.10043	-0.321316	0.237538	0.665914	1.33359	0	0
1.99	-2.8492	1.48695	-1.77571	0.525657	1.57989	0.947818	-0.147809	0.0289627	-0.195313	0.117388	0.164276	0	0	0.318692	-0.164186	-0.333945	0.693561	0.236828	0	0	-0.223466	-0.0125495	-0.0885774	-0.197601	-0.229877	0.198668	0.681382	0.34649	0	0	-0.106166	-0.318196	0.236145	0.661348	1.32894	0	0
2	-2.83125	1.48617	-1.79442	0.524669	1.58941	0.946872	-0.165822	0.0281155	-0.190491	0.106061	0.169354	0	0	0.326714	-0.155834	-0.345476	0.646726	0.23584	0	0	-0.225537	-0.0146528	-0.0885757	-0.194702	-0.22861	0.189068	0.682053	0.354431	0	0	-0.110819	-0.315375	0.236492	0.655294	1.32409	0	0
2.01	-2.81533	1.48614	-1.80997	0.523578	1.59891	0.945679	-0.182349	0.0275968	-0.187839	0.0963526	0.174697	0	0	0.334733	-0.146407	-0.354467	0.597828	0.234841	0	0	-0.226912	-0.0164944	-0.0899304	-0.190741	-0.227097	0.181145	0.681886	0.360631	0	0	-0.115371	-0.312968	0.236825	0.649669	1.32187	0	0
2.02	-2.79531	1.4861	-1.82879	0.522362	1.60839	0.944324	-0.197471	0.026492	-0.188248	0.0893903	0.180928	0	0	0.341197	-0.134574	-0.359462	0.545151	0.233904	0	0	-0.228377	-0.0187094	-0.0923435	-0.185993	-0.225277	0.173882	0.681343	0.366276	0	0	-0.119559	-0.31089	0.23724	0.64428	1.32013	0	0
2.03	-2.77026	1.48574	-1.85255	0.521046	1.61793	0.942832	-0.212465	0.0248666	-0.188716	0.0830912	0.187136	0	0	0.344684	-0.119962	-0.35973	0.487186	0.231461	0	0	-0.229978	-0.0215205	-0.0949018	-0.180795	-0.223401	0.167405	0.680357	0.373416	0	0	-0.123272	-0.309007	0.238256	0.638747	1.31926	0	0
2.04	-2.74484	1.48552	-1.87709	0.519634	1.62734	0.941195	-0.226005	0.0229602	-0.188396	0.0788404	0.193731	0	0	0.345351	-0.103347	-0.354522	0.423138	0.225941	0	0	-0.231843	-0.0243168	-0.0969562	-0.174916	-0.22175	0.161412	0.679307	0.380409	0	0	-0.125688	-0.306916	0.239889	0.632578	1.32013	0	0
